<?xml version="1.0" standalone="no"?>
<svg xmlns:xlink="http://www.w3.org/1999/xlink" id="wave" style="transform:rotate(180deg); transition: 0.3s" viewBox="0 0 1440 130" version="1.1" xmlns="http://www.w3.org/2000/svg"><defs><linearGradient id="sw-gradient-0" x1="0" x2="0" y1="1" y2="0"><stop stop-color="rgba(255, 249, 234, 1)" offset="0%"/><stop stop-color="rgba(255, 249, 234, 1)" offset="100%"/></linearGradient></defs><path style="transform:translate(0, 0px); opacity:1" fill="url(#sw-gradient-0)" d="M0,26L21.8,39C43.6,52,87,78,131,93.2C174.5,108,218,113,262,104C305.5,95,349,74,393,54.2C436.4,35,480,17,524,15.2C567.3,13,611,26,655,39C698.2,52,742,65,785,65C829.1,65,873,52,916,58.5C960,65,1004,91,1047,88.8C1090.9,87,1135,56,1178,41.2C1221.8,26,1265,26,1309,23.8C1352.7,22,1396,17,1440,21.7C1483.6,26,1527,39,1571,43.3C1614.5,48,1658,43,1702,45.5C1745.5,48,1789,56,1833,56.3C1876.4,56,1920,48,1964,54.2C2007.3,61,2051,82,2095,78C2138.2,74,2182,43,2225,26C2269.1,9,2313,4,2356,4.3C2400,4,2444,9,2487,13C2530.9,17,2575,22,2618,36.8C2661.8,52,2705,78,2749,78C2792.7,78,2836,52,2880,41.2C2923.6,30,2967,35,3011,30.3C3054.5,26,3098,13,3120,6.5L3141.8,0L3141.8,130L3120,130C3098.2,130,3055,130,3011,130C2967.3,130,2924,130,2880,130C2836.4,130,2793,130,2749,130C2705.5,130,2662,130,2618,130C2574.5,130,2531,130,2487,130C2443.6,130,2400,130,2356,130C2312.7,130,2269,130,2225,130C2181.8,130,2138,130,2095,130C2050.9,130,2007,130,1964,130C1920,130,1876,130,1833,130C1789.1,130,1745,130,1702,130C1658.2,130,1615,130,1571,130C1527.3,130,1484,130,1440,130C1396.4,130,1353,130,1309,130C1265.5,130,1222,130,1178,130C1134.5,130,1091,130,1047,130C1003.6,130,960,130,916,130C872.7,130,829,130,785,130C741.8,130,698,130,655,130C610.9,130,567,130,524,130C480,130,436,130,393,130C349.1,130,305,130,262,130C218.2,130,175,130,131,130C87.3,130,44,130,22,130L0,130Z"/></svg>